<svg width="24" height="24" viewBox="0 0 24 24" fill="none" xmlns="http://www.w3.org/2000/svg">
  <path d="M12 5.5c-1 0-2 .5-2.5 1.5-.5-1-1.5-1.5-2.5-1.5-1.7 0-3 1.3-3 3 0 2.5 2.5 4.5 5.5 7 .3.2.5.3.5.3s.2-.1.5-.3c3-2.5 5.5-4.5 5.5-7 0-1.7-1.3-3-3-3z"
        stroke="#22c55e" stroke-width="1.5" fill="none"/>

  <path d="M20 10.5c-1 0-2 .5-2.5 1.5-.5-1-1.5-1.5-2.5-1.5-1.7 0-3 1.3-3 3 0 2.5 2.5 4.5 5.5 7 .3.2.5.3.5.3s.2-.1.5-.3c3-2.5 5.5-4.5 5.5-7 0-1.7-1.3-3-3-3z"
        transform="translate(-5, 0)"
        stroke="#22c55e" stroke-width="1.5" fill="none"/>

  <path d="M4 10.5c-1 0-2 .5-2.5 1.5-.5-1-1.5-1.5-2.5-1.5-1.7 0-3 1.3-3 3 0 2.5 2.5 4.5 5.5 7 .3.2.5.3.5.3s.2-.1.5-.3c3-2.5 5.5-4.5 5.5-7 0-1.7-1.3-3-3-3z"
        transform="translate(5, 0)"
        stroke="#22c55e" stroke-width="1.5" fill="none"/>
</svg>
